<mxfile host="app.diagrams.net" agent="Mozilla/5.0 (Windows NT 10.0; Win64; x64) AppleWebKit/537.36 (KHTML, like Gecko) Chrome/131.0.0.0 Safari/537.36" version="26.0.5">
  <diagram name="Page-1" id="2KGIQ_eXEkSzWEXvWLHr">
    <mxGraphModel dx="1509" dy="1913" grid="1" gridSize="10" guides="1" tooltips="1" connect="1" arrows="1" fold="1" page="1" pageScale="1" pageWidth="850" pageHeight="1100" math="0" shadow="0">
      <root>
        <mxCell id="0" />
        <mxCell id="1" parent="0" />
        <mxCell id="riCOL20UfUU9zMfdkkIi-10" value="" style="group" vertex="1" connectable="0" parent="1">
          <mxGeometry x="70" y="-20" width="1330" height="1220" as="geometry" />
        </mxCell>
        <mxCell id="riCOL20UfUU9zMfdkkIi-4" value="Management Inventory System" style="shape=rect;html=1;verticalAlign=top;fontStyle=1;whiteSpace=wrap;align=center;" vertex="1" parent="riCOL20UfUU9zMfdkkIi-10">
          <mxGeometry x="150" width="1010" height="1220" as="geometry" />
        </mxCell>
        <mxCell id="9QEkRZjNsA17iuVOnQEO-1" value="administrator" style="shape=umlActor;verticalLabelPosition=bottom;verticalAlign=top;html=1;outlineConnect=0;" parent="riCOL20UfUU9zMfdkkIi-10" vertex="1">
          <mxGeometry y="435" width="70" height="105" as="geometry" />
        </mxCell>
        <mxCell id="9QEkRZjNsA17iuVOnQEO-2" value="add new product" style="ellipse;whiteSpace=wrap;html=1;" parent="riCOL20UfUU9zMfdkkIi-10" vertex="1">
          <mxGeometry x="488.5" y="70" width="300" height="80" as="geometry" />
        </mxCell>
        <mxCell id="9QEkRZjNsA17iuVOnQEO-3" value="view product" style="ellipse;whiteSpace=wrap;html=1;" parent="riCOL20UfUU9zMfdkkIi-10" vertex="1">
          <mxGeometry x="480" y="170" width="300" height="80" as="geometry" />
        </mxCell>
        <mxCell id="9QEkRZjNsA17iuVOnQEO-4" value="delet product" style="ellipse;whiteSpace=wrap;html=1;" parent="riCOL20UfUU9zMfdkkIi-10" vertex="1">
          <mxGeometry x="488.5" y="270" width="300" height="80" as="geometry" />
        </mxCell>
        <mxCell id="9QEkRZjNsA17iuVOnQEO-5" value="&lt;span style=&quot;font-size: 14px;&quot;&gt;update stock information&lt;/span&gt;" style="ellipse;whiteSpace=wrap;html=1;" parent="riCOL20UfUU9zMfdkkIi-10" vertex="1">
          <mxGeometry x="488.5" y="370" width="300" height="80" as="geometry" />
        </mxCell>
        <mxCell id="9QEkRZjNsA17iuVOnQEO-12" value="customer" style="shape=umlActor;verticalLabelPosition=bottom;verticalAlign=top;html=1;outlineConnect=0;" parent="riCOL20UfUU9zMfdkkIi-10" vertex="1">
          <mxGeometry x="1260" y="450" width="70" height="120" as="geometry" />
        </mxCell>
        <mxCell id="9QEkRZjNsA17iuVOnQEO-13" value="make a new order" style="ellipse;whiteSpace=wrap;html=1;fontSize=14;" parent="riCOL20UfUU9zMfdkkIi-10" vertex="1">
          <mxGeometry x="488.5" y="480" width="300" height="80" as="geometry" />
        </mxCell>
        <mxCell id="9QEkRZjNsA17iuVOnQEO-14" value="view order details" style="ellipse;whiteSpace=wrap;html=1;fontSize=14;" parent="riCOL20UfUU9zMfdkkIi-10" vertex="1">
          <mxGeometry x="505" y="590" width="300" height="80" as="geometry" />
        </mxCell>
        <mxCell id="9QEkRZjNsA17iuVOnQEO-15" value="view orders&amp;nbsp;" style="ellipse;whiteSpace=wrap;html=1;fontSize=14;" parent="riCOL20UfUU9zMfdkkIi-10" vertex="1">
          <mxGeometry x="488.5" y="700" width="300" height="80" as="geometry" />
        </mxCell>
        <mxCell id="9QEkRZjNsA17iuVOnQEO-16" value="delete an order&amp;nbsp;" style="ellipse;whiteSpace=wrap;html=1;fontSize=14;" parent="riCOL20UfUU9zMfdkkIi-10" vertex="1">
          <mxGeometry x="488.5" y="1080" width="300" height="80" as="geometry" />
        </mxCell>
        <mxCell id="9QEkRZjNsA17iuVOnQEO-17" value="edit an order" style="ellipse;whiteSpace=wrap;html=1;fontSize=14;" parent="riCOL20UfUU9zMfdkkIi-10" vertex="1">
          <mxGeometry x="488.5" y="810" width="300" height="80" as="geometry" />
        </mxCell>
        <mxCell id="9QEkRZjNsA17iuVOnQEO-18" value="update stock" style="ellipse;whiteSpace=wrap;html=1;fontSize=14;" parent="riCOL20UfUU9zMfdkkIi-10" vertex="1">
          <mxGeometry x="788.5" y="950" width="300" height="80" as="geometry" />
        </mxCell>
        <mxCell id="9QEkRZjNsA17iuVOnQEO-23" value="" style="endArrow=none;html=1;rounded=0;entryX=0.005;entryY=0.55;entryDx=0;entryDy=0;entryPerimeter=0;" parent="riCOL20UfUU9zMfdkkIi-10" target="9QEkRZjNsA17iuVOnQEO-2" edge="1" source="9QEkRZjNsA17iuVOnQEO-1">
          <mxGeometry width="50" height="50" relative="1" as="geometry">
            <mxPoint x="130" y="540" as="sourcePoint" />
            <mxPoint x="180" y="100" as="targetPoint" />
          </mxGeometry>
        </mxCell>
        <mxCell id="9QEkRZjNsA17iuVOnQEO-24" value="" style="endArrow=none;html=1;rounded=0;entryX=0.007;entryY=0.638;entryDx=0;entryDy=0;entryPerimeter=0;" parent="riCOL20UfUU9zMfdkkIi-10" target="9QEkRZjNsA17iuVOnQEO-3" edge="1" source="9QEkRZjNsA17iuVOnQEO-1">
          <mxGeometry width="50" height="50" relative="1" as="geometry">
            <mxPoint x="130" y="579" as="sourcePoint" />
            <mxPoint x="180" y="529" as="targetPoint" />
          </mxGeometry>
        </mxCell>
        <mxCell id="9QEkRZjNsA17iuVOnQEO-25" value="" style="endArrow=none;html=1;rounded=0;entryX=0;entryY=0.5;entryDx=0;entryDy=0;" parent="riCOL20UfUU9zMfdkkIi-10" target="9QEkRZjNsA17iuVOnQEO-5" edge="1" source="9QEkRZjNsA17iuVOnQEO-1">
          <mxGeometry width="50" height="50" relative="1" as="geometry">
            <mxPoint x="130" y="590" as="sourcePoint" />
            <mxPoint x="180" y="540" as="targetPoint" />
          </mxGeometry>
        </mxCell>
        <mxCell id="9QEkRZjNsA17iuVOnQEO-26" value="" style="endArrow=none;html=1;rounded=0;entryX=0.022;entryY=0.663;entryDx=0;entryDy=0;entryPerimeter=0;" parent="riCOL20UfUU9zMfdkkIi-10" target="9QEkRZjNsA17iuVOnQEO-13" edge="1" source="9QEkRZjNsA17iuVOnQEO-1">
          <mxGeometry width="50" height="50" relative="1" as="geometry">
            <mxPoint x="130" y="605" as="sourcePoint" />
            <mxPoint x="180" y="555" as="targetPoint" />
          </mxGeometry>
        </mxCell>
        <mxCell id="9QEkRZjNsA17iuVOnQEO-27" value="" style="endArrow=none;html=1;rounded=0;entryX=0;entryY=0.5;entryDx=0;entryDy=0;" parent="riCOL20UfUU9zMfdkkIi-10" target="9QEkRZjNsA17iuVOnQEO-14" edge="1" source="9QEkRZjNsA17iuVOnQEO-1">
          <mxGeometry width="50" height="50" relative="1" as="geometry">
            <mxPoint x="130" y="620" as="sourcePoint" />
            <mxPoint x="180" y="570" as="targetPoint" />
          </mxGeometry>
        </mxCell>
        <mxCell id="9QEkRZjNsA17iuVOnQEO-28" value="" style="endArrow=none;html=1;rounded=0;entryX=0.043;entryY=0.35;entryDx=0;entryDy=0;entryPerimeter=0;" parent="riCOL20UfUU9zMfdkkIi-10" target="9QEkRZjNsA17iuVOnQEO-15" edge="1" source="9QEkRZjNsA17iuVOnQEO-1">
          <mxGeometry width="50" height="50" relative="1" as="geometry">
            <mxPoint x="130" y="620" as="sourcePoint" />
            <mxPoint x="180" y="609" as="targetPoint" />
          </mxGeometry>
        </mxCell>
        <mxCell id="9QEkRZjNsA17iuVOnQEO-29" value="" style="endArrow=none;html=1;rounded=0;entryX=0.017;entryY=0.388;entryDx=0;entryDy=0;entryPerimeter=0;" parent="riCOL20UfUU9zMfdkkIi-10" target="9QEkRZjNsA17iuVOnQEO-17" edge="1" source="9QEkRZjNsA17iuVOnQEO-1">
          <mxGeometry width="50" height="50" relative="1" as="geometry">
            <mxPoint x="130" y="659" as="sourcePoint" />
            <mxPoint x="180" y="609" as="targetPoint" />
          </mxGeometry>
        </mxCell>
        <mxCell id="9QEkRZjNsA17iuVOnQEO-30" value="" style="endArrow=none;html=1;rounded=0;entryX=0.023;entryY=0.363;entryDx=0;entryDy=0;entryPerimeter=0;" parent="riCOL20UfUU9zMfdkkIi-10" target="9QEkRZjNsA17iuVOnQEO-16" edge="1" source="9QEkRZjNsA17iuVOnQEO-1">
          <mxGeometry width="50" height="50" relative="1" as="geometry">
            <mxPoint x="130" y="700" as="sourcePoint" />
            <mxPoint x="180" y="650" as="targetPoint" />
          </mxGeometry>
        </mxCell>
        <mxCell id="9QEkRZjNsA17iuVOnQEO-32" value="" style="endArrow=none;html=1;rounded=0;exitX=1;exitY=0.5;exitDx=0;exitDy=0;" parent="riCOL20UfUU9zMfdkkIi-10" source="9QEkRZjNsA17iuVOnQEO-3" edge="1" target="9QEkRZjNsA17iuVOnQEO-12">
          <mxGeometry width="50" height="50" relative="1" as="geometry">
            <mxPoint x="560" y="560" as="sourcePoint" />
            <mxPoint x="610" y="510" as="targetPoint" />
          </mxGeometry>
        </mxCell>
        <mxCell id="9QEkRZjNsA17iuVOnQEO-33" value="" style="endArrow=none;html=1;rounded=0;exitX=0.978;exitY=0.613;exitDx=0;exitDy=0;exitPerimeter=0;" parent="riCOL20UfUU9zMfdkkIi-10" source="9QEkRZjNsA17iuVOnQEO-13" edge="1" target="9QEkRZjNsA17iuVOnQEO-12">
          <mxGeometry width="50" height="50" relative="1" as="geometry">
            <mxPoint x="560" y="629" as="sourcePoint" />
            <mxPoint x="610" y="579" as="targetPoint" />
          </mxGeometry>
        </mxCell>
        <mxCell id="9QEkRZjNsA17iuVOnQEO-34" value="" style="endArrow=none;html=1;rounded=0;exitX=0.98;exitY=0.425;exitDx=0;exitDy=0;exitPerimeter=0;" parent="riCOL20UfUU9zMfdkkIi-10" source="9QEkRZjNsA17iuVOnQEO-17" edge="1" target="9QEkRZjNsA17iuVOnQEO-12">
          <mxGeometry width="50" height="50" relative="1" as="geometry">
            <mxPoint x="560" y="670" as="sourcePoint" />
            <mxPoint x="610" y="620" as="targetPoint" />
          </mxGeometry>
        </mxCell>
        <mxCell id="riCOL20UfUU9zMfdkkIi-6" value="" style="endArrow=none;html=1;rounded=0;entryX=0.01;entryY=0.588;entryDx=0;entryDy=0;entryPerimeter=0;" edge="1" parent="riCOL20UfUU9zMfdkkIi-10" source="9QEkRZjNsA17iuVOnQEO-1" target="9QEkRZjNsA17iuVOnQEO-4">
          <mxGeometry width="50" height="50" relative="1" as="geometry">
            <mxPoint x="140" y="589" as="sourcePoint" />
            <mxPoint x="492" y="231" as="targetPoint" />
          </mxGeometry>
        </mxCell>
        <mxCell id="riCOL20UfUU9zMfdkkIi-7" value="&amp;lt;&amp;lt;extend&amp;gt;&amp;gt;" style="edgeStyle=none;html=1;startArrow=open;endArrow=none;startSize=12;verticalAlign=bottom;dashed=1;labelBackgroundColor=none;rounded=0;" edge="1" parent="riCOL20UfUU9zMfdkkIi-10" source="9QEkRZjNsA17iuVOnQEO-18" target="9QEkRZjNsA17iuVOnQEO-17">
          <mxGeometry width="160" relative="1" as="geometry">
            <mxPoint x="820" y="920" as="sourcePoint" />
            <mxPoint x="980" y="920" as="targetPoint" />
          </mxGeometry>
        </mxCell>
        <mxCell id="riCOL20UfUU9zMfdkkIi-8" value="&amp;lt;&amp;lt;include&amp;gt;&amp;gt;" style="edgeStyle=none;html=1;endArrow=open;verticalAlign=bottom;dashed=1;labelBackgroundColor=none;rounded=0;exitX=1;exitY=0;exitDx=0;exitDy=0;" edge="1" parent="riCOL20UfUU9zMfdkkIi-10" source="9QEkRZjNsA17iuVOnQEO-16" target="9QEkRZjNsA17iuVOnQEO-18">
          <mxGeometry width="160" relative="1" as="geometry">
            <mxPoint x="720" y="1120" as="sourcePoint" />
            <mxPoint x="880" y="1120" as="targetPoint" />
          </mxGeometry>
        </mxCell>
      </root>
    </mxGraphModel>
  </diagram>
</mxfile>
